<svg width="535" height="661" viewBox="0 0 535 661" fill="none" xmlns="http://www.w3.org/2000/svg">
<path d="M275.236 658.534C270.595 661.213 264.877 661.213 260.236 658.534L8.5 513.194C3.85898 510.514 1 505.563 1 500.204V426.864L267.736 580.864L534.472 426.864V500.204C534.472 505.563 531.613 510.514 526.972 513.194L275.236 658.534Z" fill="#2563EB"/>
<path d="M267.5 0L8.5 149.534C3.85898 152.213 1 157.165 1 162.524V350.364L58.5 317.166V199.524C58.5 194.165 61.359 189.213 66 186.534L267.5 70.1976L469 186.534C473.641 189.213 476.5 194.165 476.5 199.524V317.166L534 350.364V162.524C534 157.165 531.141 152.213 526.5 149.534L267.5 0Z" fill="#2563EB"/>
<path d="M267.5 159.864L164.5 262.864H224V423.864L83 342.457L0 390.378L267.5 544.819L535 390.378L452 342.457L311 423.864V262.864H370.5L267.5 159.864Z" fill="#2563EB"/>
</svg>
